# xmcd CD database file
#
# Track frame offsets:
#	150
#	21138
#	44806
#	62824
#	106847
#	139826
#	188362
#	213598
#	239539
#	272315
#
# Disc length: 4477 seconds
#
# Revision: 0
# Processed by: cddbd v1.5.2PL0 Copyright (c) Steve Scherf et al.
# Submitted via: cdripper 1,0,33,916
#
DISCID=8c117b0a
DTITLE=Blakey Art - Simplicity - CD 2
DYEAR=1900
DGENRE=Jazz
TTITLE0=Hank's symphony
TTITLE1=The sacrifice
TTITLE2=Cubano chant
TTITLE3=Theory of art
TTITLE4=Rythm-a-ning
TTITLE5=Epistrophy
TTITLE6=Remember Clifford
TTITLE7=Blues march for Europe n° 1
TTITLE8=Whisper not
TTITLE9=Moanin' with Hazel
EXTD=
EXTT0=
EXTT1=
EXTT2=
EXTT3=
EXTT4=
EXTT5=
EXTT6=
EXTT7=
EXTT8=
EXTT9=
PLAYORDER=
